<mxfile host="app.diagrams.net" modified="2021-03-11T20:56:54.640Z" agent="5.0 (Macintosh)" etag="-ii_7a2aBtnA7UjjM8ub" version="14.4.7" type="github">
  <diagram id="fbK2GwRk4LEuwhx-I1Jf" name="Page-1">
    <mxGraphModel dx="779" dy="563" grid="1" gridSize="10" guides="1" tooltips="1" connect="1" arrows="1" fold="1" page="1" pageScale="1" pageWidth="850" pageHeight="1100" math="0" shadow="0">
      <root>
        <mxCell id="VvQJ6g8RMtxhGM0xrztF-0" />
        <mxCell id="VvQJ6g8RMtxhGM0xrztF-1" parent="VvQJ6g8RMtxhGM0xrztF-0" />
        <mxCell id="63T5zMLXDl2bLYW26i59-0" value="Book" style="shape=table;startSize=30;container=1;collapsible=1;childLayout=tableLayout;fixedRows=1;rowLines=0;fontStyle=1;align=center;resizeLast=1;" vertex="1" parent="VvQJ6g8RMtxhGM0xrztF-1">
          <mxGeometry x="120" y="90" width="180" height="160" as="geometry" />
        </mxCell>
        <mxCell id="63T5zMLXDl2bLYW26i59-1" value="" style="shape=partialRectangle;collapsible=0;dropTarget=0;pointerEvents=0;fillColor=none;top=0;left=0;bottom=1;right=0;points=[[0,0.5],[1,0.5]];portConstraint=eastwest;" vertex="1" parent="63T5zMLXDl2bLYW26i59-0">
          <mxGeometry y="30" width="180" height="30" as="geometry" />
        </mxCell>
        <mxCell id="63T5zMLXDl2bLYW26i59-2" value="PK" style="shape=partialRectangle;connectable=0;fillColor=none;top=0;left=0;bottom=0;right=0;fontStyle=1;overflow=hidden;" vertex="1" parent="63T5zMLXDl2bLYW26i59-1">
          <mxGeometry width="30" height="30" as="geometry" />
        </mxCell>
        <mxCell id="63T5zMLXDl2bLYW26i59-3" value="book_id" style="shape=partialRectangle;connectable=0;fillColor=none;top=0;left=0;bottom=0;right=0;align=left;spacingLeft=6;fontStyle=5;overflow=hidden;" vertex="1" parent="63T5zMLXDl2bLYW26i59-1">
          <mxGeometry x="30" width="150" height="30" as="geometry" />
        </mxCell>
        <mxCell id="63T5zMLXDl2bLYW26i59-4" value="" style="shape=partialRectangle;collapsible=0;dropTarget=0;pointerEvents=0;fillColor=none;top=0;left=0;bottom=0;right=0;points=[[0,0.5],[1,0.5]];portConstraint=eastwest;" vertex="1" parent="63T5zMLXDl2bLYW26i59-0">
          <mxGeometry y="60" width="180" height="30" as="geometry" />
        </mxCell>
        <mxCell id="63T5zMLXDl2bLYW26i59-5" value="" style="shape=partialRectangle;connectable=0;fillColor=none;top=0;left=0;bottom=0;right=0;editable=1;overflow=hidden;" vertex="1" parent="63T5zMLXDl2bLYW26i59-4">
          <mxGeometry width="30" height="30" as="geometry" />
        </mxCell>
        <mxCell id="63T5zMLXDl2bLYW26i59-6" value="title" style="shape=partialRectangle;connectable=0;fillColor=none;top=0;left=0;bottom=0;right=0;align=left;spacingLeft=6;overflow=hidden;" vertex="1" parent="63T5zMLXDl2bLYW26i59-4">
          <mxGeometry x="30" width="150" height="30" as="geometry" />
        </mxCell>
        <mxCell id="63T5zMLXDl2bLYW26i59-7" value="" style="shape=partialRectangle;collapsible=0;dropTarget=0;pointerEvents=0;fillColor=none;top=0;left=0;bottom=0;right=0;points=[[0,0.5],[1,0.5]];portConstraint=eastwest;" vertex="1" parent="63T5zMLXDl2bLYW26i59-0">
          <mxGeometry y="90" width="180" height="30" as="geometry" />
        </mxCell>
        <mxCell id="63T5zMLXDl2bLYW26i59-8" value="" style="shape=partialRectangle;connectable=0;fillColor=none;top=0;left=0;bottom=0;right=0;editable=1;overflow=hidden;" vertex="1" parent="63T5zMLXDl2bLYW26i59-7">
          <mxGeometry width="30" height="30" as="geometry" />
        </mxCell>
        <mxCell id="63T5zMLXDl2bLYW26i59-9" value="author" style="shape=partialRectangle;connectable=0;fillColor=none;top=0;left=0;bottom=0;right=0;align=left;spacingLeft=6;overflow=hidden;" vertex="1" parent="63T5zMLXDl2bLYW26i59-7">
          <mxGeometry x="30" width="150" height="30" as="geometry" />
        </mxCell>
        <mxCell id="63T5zMLXDl2bLYW26i59-10" value="" style="shape=partialRectangle;collapsible=0;dropTarget=0;pointerEvents=0;fillColor=none;top=0;left=0;bottom=0;right=0;points=[[0,0.5],[1,0.5]];portConstraint=eastwest;" vertex="1" parent="63T5zMLXDl2bLYW26i59-0">
          <mxGeometry y="120" width="180" height="30" as="geometry" />
        </mxCell>
        <mxCell id="63T5zMLXDl2bLYW26i59-11" value="" style="shape=partialRectangle;connectable=0;fillColor=none;top=0;left=0;bottom=0;right=0;editable=1;overflow=hidden;" vertex="1" parent="63T5zMLXDl2bLYW26i59-10">
          <mxGeometry width="30" height="30" as="geometry" />
        </mxCell>
        <mxCell id="63T5zMLXDl2bLYW26i59-12" value="genre" style="shape=partialRectangle;connectable=0;fillColor=none;top=0;left=0;bottom=0;right=0;align=left;spacingLeft=6;overflow=hidden;" vertex="1" parent="63T5zMLXDl2bLYW26i59-10">
          <mxGeometry x="30" width="150" height="30" as="geometry" />
        </mxCell>
        <mxCell id="63T5zMLXDl2bLYW26i59-13" value="Table" style="shape=table;startSize=30;container=1;collapsible=1;childLayout=tableLayout;fixedRows=1;rowLines=0;fontStyle=1;align=center;resizeLast=1;" vertex="1" parent="VvQJ6g8RMtxhGM0xrztF-1">
          <mxGeometry x="430" y="300" width="180" height="160" as="geometry" />
        </mxCell>
        <mxCell id="63T5zMLXDl2bLYW26i59-14" value="" style="shape=partialRectangle;collapsible=0;dropTarget=0;pointerEvents=0;fillColor=none;top=0;left=0;bottom=1;right=0;points=[[0,0.5],[1,0.5]];portConstraint=eastwest;" vertex="1" parent="63T5zMLXDl2bLYW26i59-13">
          <mxGeometry y="30" width="180" height="30" as="geometry" />
        </mxCell>
        <mxCell id="63T5zMLXDl2bLYW26i59-15" value="PK" style="shape=partialRectangle;connectable=0;fillColor=none;top=0;left=0;bottom=0;right=0;fontStyle=1;overflow=hidden;" vertex="1" parent="63T5zMLXDl2bLYW26i59-14">
          <mxGeometry width="30" height="30" as="geometry" />
        </mxCell>
        <mxCell id="63T5zMLXDl2bLYW26i59-16" value="UniqueID" style="shape=partialRectangle;connectable=0;fillColor=none;top=0;left=0;bottom=0;right=0;align=left;spacingLeft=6;fontStyle=5;overflow=hidden;" vertex="1" parent="63T5zMLXDl2bLYW26i59-14">
          <mxGeometry x="30" width="150" height="30" as="geometry" />
        </mxCell>
        <mxCell id="63T5zMLXDl2bLYW26i59-17" value="" style="shape=partialRectangle;collapsible=0;dropTarget=0;pointerEvents=0;fillColor=none;top=0;left=0;bottom=0;right=0;points=[[0,0.5],[1,0.5]];portConstraint=eastwest;" vertex="1" parent="63T5zMLXDl2bLYW26i59-13">
          <mxGeometry y="60" width="180" height="30" as="geometry" />
        </mxCell>
        <mxCell id="63T5zMLXDl2bLYW26i59-18" value="" style="shape=partialRectangle;connectable=0;fillColor=none;top=0;left=0;bottom=0;right=0;editable=1;overflow=hidden;" vertex="1" parent="63T5zMLXDl2bLYW26i59-17">
          <mxGeometry width="30" height="30" as="geometry" />
        </mxCell>
        <mxCell id="63T5zMLXDl2bLYW26i59-19" value="Row 1" style="shape=partialRectangle;connectable=0;fillColor=none;top=0;left=0;bottom=0;right=0;align=left;spacingLeft=6;overflow=hidden;" vertex="1" parent="63T5zMLXDl2bLYW26i59-17">
          <mxGeometry x="30" width="150" height="30" as="geometry" />
        </mxCell>
        <mxCell id="63T5zMLXDl2bLYW26i59-20" value="" style="shape=partialRectangle;collapsible=0;dropTarget=0;pointerEvents=0;fillColor=none;top=0;left=0;bottom=0;right=0;points=[[0,0.5],[1,0.5]];portConstraint=eastwest;" vertex="1" parent="63T5zMLXDl2bLYW26i59-13">
          <mxGeometry y="90" width="180" height="30" as="geometry" />
        </mxCell>
        <mxCell id="63T5zMLXDl2bLYW26i59-21" value="" style="shape=partialRectangle;connectable=0;fillColor=none;top=0;left=0;bottom=0;right=0;editable=1;overflow=hidden;" vertex="1" parent="63T5zMLXDl2bLYW26i59-20">
          <mxGeometry width="30" height="30" as="geometry" />
        </mxCell>
        <mxCell id="63T5zMLXDl2bLYW26i59-22" value="Row 2" style="shape=partialRectangle;connectable=0;fillColor=none;top=0;left=0;bottom=0;right=0;align=left;spacingLeft=6;overflow=hidden;" vertex="1" parent="63T5zMLXDl2bLYW26i59-20">
          <mxGeometry x="30" width="150" height="30" as="geometry" />
        </mxCell>
        <mxCell id="63T5zMLXDl2bLYW26i59-23" value="" style="shape=partialRectangle;collapsible=0;dropTarget=0;pointerEvents=0;fillColor=none;top=0;left=0;bottom=0;right=0;points=[[0,0.5],[1,0.5]];portConstraint=eastwest;" vertex="1" parent="63T5zMLXDl2bLYW26i59-13">
          <mxGeometry y="120" width="180" height="30" as="geometry" />
        </mxCell>
        <mxCell id="63T5zMLXDl2bLYW26i59-24" value="" style="shape=partialRectangle;connectable=0;fillColor=none;top=0;left=0;bottom=0;right=0;editable=1;overflow=hidden;" vertex="1" parent="63T5zMLXDl2bLYW26i59-23">
          <mxGeometry width="30" height="30" as="geometry" />
        </mxCell>
        <mxCell id="63T5zMLXDl2bLYW26i59-25" value="Row 3" style="shape=partialRectangle;connectable=0;fillColor=none;top=0;left=0;bottom=0;right=0;align=left;spacingLeft=6;overflow=hidden;" vertex="1" parent="63T5zMLXDl2bLYW26i59-23">
          <mxGeometry x="30" width="150" height="30" as="geometry" />
        </mxCell>
        <mxCell id="63T5zMLXDl2bLYW26i59-26" value="Table" style="shape=table;startSize=30;container=1;collapsible=1;childLayout=tableLayout;fixedRows=1;rowLines=0;fontStyle=1;align=center;resizeLast=1;" vertex="1" parent="VvQJ6g8RMtxhGM0xrztF-1">
          <mxGeometry x="130" y="300" width="180" height="160" as="geometry" />
        </mxCell>
        <mxCell id="63T5zMLXDl2bLYW26i59-27" value="" style="shape=partialRectangle;collapsible=0;dropTarget=0;pointerEvents=0;fillColor=none;top=0;left=0;bottom=1;right=0;points=[[0,0.5],[1,0.5]];portConstraint=eastwest;" vertex="1" parent="63T5zMLXDl2bLYW26i59-26">
          <mxGeometry y="30" width="180" height="30" as="geometry" />
        </mxCell>
        <mxCell id="63T5zMLXDl2bLYW26i59-28" value="PK" style="shape=partialRectangle;connectable=0;fillColor=none;top=0;left=0;bottom=0;right=0;fontStyle=1;overflow=hidden;" vertex="1" parent="63T5zMLXDl2bLYW26i59-27">
          <mxGeometry width="30" height="30" as="geometry" />
        </mxCell>
        <mxCell id="63T5zMLXDl2bLYW26i59-29" value="UniqueID" style="shape=partialRectangle;connectable=0;fillColor=none;top=0;left=0;bottom=0;right=0;align=left;spacingLeft=6;fontStyle=5;overflow=hidden;" vertex="1" parent="63T5zMLXDl2bLYW26i59-27">
          <mxGeometry x="30" width="150" height="30" as="geometry" />
        </mxCell>
        <mxCell id="63T5zMLXDl2bLYW26i59-30" value="" style="shape=partialRectangle;collapsible=0;dropTarget=0;pointerEvents=0;fillColor=none;top=0;left=0;bottom=0;right=0;points=[[0,0.5],[1,0.5]];portConstraint=eastwest;" vertex="1" parent="63T5zMLXDl2bLYW26i59-26">
          <mxGeometry y="60" width="180" height="30" as="geometry" />
        </mxCell>
        <mxCell id="63T5zMLXDl2bLYW26i59-31" value="" style="shape=partialRectangle;connectable=0;fillColor=none;top=0;left=0;bottom=0;right=0;editable=1;overflow=hidden;" vertex="1" parent="63T5zMLXDl2bLYW26i59-30">
          <mxGeometry width="30" height="30" as="geometry" />
        </mxCell>
        <mxCell id="63T5zMLXDl2bLYW26i59-32" value="Row 1" style="shape=partialRectangle;connectable=0;fillColor=none;top=0;left=0;bottom=0;right=0;align=left;spacingLeft=6;overflow=hidden;" vertex="1" parent="63T5zMLXDl2bLYW26i59-30">
          <mxGeometry x="30" width="150" height="30" as="geometry" />
        </mxCell>
        <mxCell id="63T5zMLXDl2bLYW26i59-33" value="" style="shape=partialRectangle;collapsible=0;dropTarget=0;pointerEvents=0;fillColor=none;top=0;left=0;bottom=0;right=0;points=[[0,0.5],[1,0.5]];portConstraint=eastwest;" vertex="1" parent="63T5zMLXDl2bLYW26i59-26">
          <mxGeometry y="90" width="180" height="30" as="geometry" />
        </mxCell>
        <mxCell id="63T5zMLXDl2bLYW26i59-34" value="" style="shape=partialRectangle;connectable=0;fillColor=none;top=0;left=0;bottom=0;right=0;editable=1;overflow=hidden;" vertex="1" parent="63T5zMLXDl2bLYW26i59-33">
          <mxGeometry width="30" height="30" as="geometry" />
        </mxCell>
        <mxCell id="63T5zMLXDl2bLYW26i59-35" value="Row 2" style="shape=partialRectangle;connectable=0;fillColor=none;top=0;left=0;bottom=0;right=0;align=left;spacingLeft=6;overflow=hidden;" vertex="1" parent="63T5zMLXDl2bLYW26i59-33">
          <mxGeometry x="30" width="150" height="30" as="geometry" />
        </mxCell>
        <mxCell id="63T5zMLXDl2bLYW26i59-36" value="" style="shape=partialRectangle;collapsible=0;dropTarget=0;pointerEvents=0;fillColor=none;top=0;left=0;bottom=0;right=0;points=[[0,0.5],[1,0.5]];portConstraint=eastwest;" vertex="1" parent="63T5zMLXDl2bLYW26i59-26">
          <mxGeometry y="120" width="180" height="30" as="geometry" />
        </mxCell>
        <mxCell id="63T5zMLXDl2bLYW26i59-37" value="" style="shape=partialRectangle;connectable=0;fillColor=none;top=0;left=0;bottom=0;right=0;editable=1;overflow=hidden;" vertex="1" parent="63T5zMLXDl2bLYW26i59-36">
          <mxGeometry width="30" height="30" as="geometry" />
        </mxCell>
        <mxCell id="63T5zMLXDl2bLYW26i59-38" value="Row 3" style="shape=partialRectangle;connectable=0;fillColor=none;top=0;left=0;bottom=0;right=0;align=left;spacingLeft=6;overflow=hidden;" vertex="1" parent="63T5zMLXDl2bLYW26i59-36">
          <mxGeometry x="30" width="150" height="30" as="geometry" />
        </mxCell>
        <mxCell id="63T5zMLXDl2bLYW26i59-39" value="Review" style="shape=table;startSize=30;container=1;collapsible=1;childLayout=tableLayout;fixedRows=1;rowLines=0;fontStyle=1;align=center;resizeLast=1;" vertex="1" parent="VvQJ6g8RMtxhGM0xrztF-1">
          <mxGeometry x="440" y="80" width="180" height="190" as="geometry" />
        </mxCell>
        <mxCell id="63T5zMLXDl2bLYW26i59-40" value="" style="shape=partialRectangle;collapsible=0;dropTarget=0;pointerEvents=0;fillColor=none;top=0;left=0;bottom=1;right=0;points=[[0,0.5],[1,0.5]];portConstraint=eastwest;" vertex="1" parent="63T5zMLXDl2bLYW26i59-39">
          <mxGeometry y="30" width="180" height="30" as="geometry" />
        </mxCell>
        <mxCell id="63T5zMLXDl2bLYW26i59-41" value="PK" style="shape=partialRectangle;connectable=0;fillColor=none;top=0;left=0;bottom=0;right=0;fontStyle=1;overflow=hidden;" vertex="1" parent="63T5zMLXDl2bLYW26i59-40">
          <mxGeometry width="30" height="30" as="geometry" />
        </mxCell>
        <mxCell id="63T5zMLXDl2bLYW26i59-42" value="review_id" style="shape=partialRectangle;connectable=0;fillColor=none;top=0;left=0;bottom=0;right=0;align=left;spacingLeft=6;fontStyle=5;overflow=hidden;" vertex="1" parent="63T5zMLXDl2bLYW26i59-40">
          <mxGeometry x="30" width="150" height="30" as="geometry" />
        </mxCell>
        <mxCell id="63T5zMLXDl2bLYW26i59-43" value="" style="shape=partialRectangle;collapsible=0;dropTarget=0;pointerEvents=0;fillColor=none;top=0;left=0;bottom=0;right=0;points=[[0,0.5],[1,0.5]];portConstraint=eastwest;" vertex="1" parent="63T5zMLXDl2bLYW26i59-39">
          <mxGeometry y="60" width="180" height="30" as="geometry" />
        </mxCell>
        <mxCell id="63T5zMLXDl2bLYW26i59-44" value="" style="shape=partialRectangle;connectable=0;fillColor=none;top=0;left=0;bottom=0;right=0;editable=1;overflow=hidden;" vertex="1" parent="63T5zMLXDl2bLYW26i59-43">
          <mxGeometry width="30" height="30" as="geometry" />
        </mxCell>
        <mxCell id="63T5zMLXDl2bLYW26i59-45" value="rating" style="shape=partialRectangle;connectable=0;fillColor=none;top=0;left=0;bottom=0;right=0;align=left;spacingLeft=6;overflow=hidden;" vertex="1" parent="63T5zMLXDl2bLYW26i59-43">
          <mxGeometry x="30" width="150" height="30" as="geometry" />
        </mxCell>
        <mxCell id="63T5zMLXDl2bLYW26i59-46" value="" style="shape=partialRectangle;collapsible=0;dropTarget=0;pointerEvents=0;fillColor=none;top=0;left=0;bottom=0;right=0;points=[[0,0.5],[1,0.5]];portConstraint=eastwest;" vertex="1" parent="63T5zMLXDl2bLYW26i59-39">
          <mxGeometry y="90" width="180" height="30" as="geometry" />
        </mxCell>
        <mxCell id="63T5zMLXDl2bLYW26i59-47" value="" style="shape=partialRectangle;connectable=0;fillColor=none;top=0;left=0;bottom=0;right=0;editable=1;overflow=hidden;" vertex="1" parent="63T5zMLXDl2bLYW26i59-46">
          <mxGeometry width="30" height="30" as="geometry" />
        </mxCell>
        <mxCell id="63T5zMLXDl2bLYW26i59-48" value="body" style="shape=partialRectangle;connectable=0;fillColor=none;top=0;left=0;bottom=0;right=0;align=left;spacingLeft=6;overflow=hidden;" vertex="1" parent="63T5zMLXDl2bLYW26i59-46">
          <mxGeometry x="30" width="150" height="30" as="geometry" />
        </mxCell>
        <mxCell id="63T5zMLXDl2bLYW26i59-49" value="" style="shape=partialRectangle;collapsible=0;dropTarget=0;pointerEvents=0;fillColor=none;top=0;left=0;bottom=0;right=0;points=[[0,0.5],[1,0.5]];portConstraint=eastwest;" vertex="1" parent="63T5zMLXDl2bLYW26i59-39">
          <mxGeometry y="120" width="180" height="30" as="geometry" />
        </mxCell>
        <mxCell id="63T5zMLXDl2bLYW26i59-50" value="" style="shape=partialRectangle;connectable=0;fillColor=none;top=0;left=0;bottom=0;right=0;editable=1;overflow=hidden;" vertex="1" parent="63T5zMLXDl2bLYW26i59-49">
          <mxGeometry width="30" height="30" as="geometry" />
        </mxCell>
        <mxCell id="63T5zMLXDl2bLYW26i59-51" value="reviewer" style="shape=partialRectangle;connectable=0;fillColor=none;top=0;left=0;bottom=0;right=0;align=left;spacingLeft=6;overflow=hidden;" vertex="1" parent="63T5zMLXDl2bLYW26i59-49">
          <mxGeometry x="30" width="150" height="30" as="geometry" />
        </mxCell>
      </root>
    </mxGraphModel>
  </diagram>
</mxfile>
